<?xml version="1.0" encoding="UTF-8"?>
<svg width="54px" height="54px" viewBox="0 0 54 54" version="1.1" xmlns="http://www.w3.org/2000/svg" xmlns:xlink="http://www.w3.org/1999/xlink">
    <defs></defs>
    <g id="Page-1" stroke="none" stroke-width="1" fill="none" fill-rule="evenodd">
        <g id="sprite" transform="translate(-40.000000, -180.000000)">
            <g id="Icon" transform="translate(40.000000, 180.000000)">
                <path d="M11.2496719,13.500225 L3.18140721,13.500225 L13.4996063,3.18155303 L13.4996063,11.2501875 C13.4996063,12.4922082 12.4916357,13.500225 11.2496719,13.500225 L11.2496719,13.500225 Z M2.24993438,45.00075 L2.24993438,15.7502625 L11.2496719,15.7502625 C13.7358494,15.7502625 15.7495406,13.7364789 15.7495406,11.2501875 L15.7495406,2.2500375 L35.99895,2.2500375 C37.2386639,2.2500375 38.2488844,3.26030434 38.2488844,4.500075 L38.2488844,13.500225 L40.4988188,13.500225 L40.4988188,4.500075 C40.4988188,2.01378356 38.4851275,0 35.99895,0 L13.4996063,0 L0,13.500225 L0,45.00075 C0,47.4870415 2.01369127,49.500825 4.49986875,49.500825 L31.4990813,49.500825 L31.4990813,47.2507875 L4.49986875,47.2507875 C3.26015491,47.2507875 2.24993438,46.2405207 2.24993438,45.00075 Z M38.2488844,22.500375 L40.4988188,22.500375 L40.4988188,18.0003 L38.2488844,18.0003 L38.2488844,22.500375 Z" id="Fill-6" fill="#333333"></path>
                <polygon id="Fill-2" fill="#B20712" points="8.99973751 22.500375 31.5013312 22.500375 31.5013312 20.2503375 8.99973751 20.2503375"></polygon>
                <path d="M26.9985375,42.7498125 L36.000525,42.7498125 L36.000525,54 L44.9980126,54 L44.9980126,42.7498125 L54,42.7498125 L40.6871383,27.0018 L26.9985375,42.7498125 Z M40.662389,30.4578576 L49.1513914,40.499775 L42.7480782,40.499775 L42.7480782,51.7522125 L38.2482094,51.7522125 L38.2482094,40.499775 L31.9348936,40.499775 L40.662389,30.4578576 Z" id="Combined-Shape" fill="#85744F"></path>
                <polygon id="Fill-3" fill="#B20712" points="26.9992125 29.2504875 31.5013312 29.2504875 31.5013312 27.00045 26.9992125 27.00045"></polygon>
                <polygon id="Fill-4" fill="#B20712" points="8.99973751 29.2504875 22.4993438 29.2504875 22.4993438 27.00045 8.99973751 27.00045"></polygon>
                <polygon id="Fill-5" fill="#B20712" points="20.2494094 15.7502625 31.4990813 15.7502625 31.4990813 13.500225 20.2494094 13.500225"></polygon>
            </g>
        </g>
    </g>
</svg>