<?xml version="1.0" encoding="UTF-8"?>
<svg width="151px" height="42px" viewBox="0 0 151 42" version="1.1" xmlns="http://www.w3.org/2000/svg" xmlns:xlink="http://www.w3.org/1999/xlink">
    <defs></defs>
    <g id="Page-1" stroke="none" stroke-width="1" fill="none" fill-rule="evenodd">
        <g id="sprite" transform="translate(-40.000000, -41.000000)">
            <g id="logo" transform="translate(40.000000, 40.000000)">
                <path d="M50.2009,25.4133 L50.4619,33.1593 L51.6229,33.1593 L54.7519,31.8553 C54.7519,31.8553 57.3079,33.3153 60.1379,33.3153 C62.9679,33.3153 69.0309,32.3373 69.0309,26.2603 C69.0309,17.5233 55.6909,17.4193 55.6909,13.5983 C55.6909,12.6593 56.2259,11.5643 58.4169,11.5643 C60.6069,11.5643 63.8409,12.6073 66.5669,17.8363 L67.5709,17.8363 L67.2579,10.7293 C67.2579,10.7293 66.8799,10.5213 66.4099,10.6773 C65.9409,10.8343 63.1239,11.8253 63.1239,11.8253 C63.1239,11.8253 60.8809,10.6773 58.3119,10.6773 C55.7429,10.6773 50.3569,11.5643 50.3569,17.9413 C50.3569,22.4403 55.0779,24.8523 57.7909,26.2083 C60.5029,27.5643 63.1239,28.1253 63.1239,30.3813 C63.1239,31.2813 61.9639,32.3773 60.1899,32.3773 C58.4169,32.3773 53.9039,31.2163 51.2969,25.3613 C50.8269,25.3613 50.2009,25.4133 50.2009,25.4133" id="Fill-1" fill="#ED1D24"></path>
                <polygon id="Fill-3" fill="#ED1D24" points="70.3352 32.7939 81.4722 32.7939 81.4722 32.0109 79.8022 32.0109 79.8022 17.6279 70.4922 18.0449 70.4922 18.8279 72.1612 18.8279 72.1612 31.9589 70.2832 31.9589"></polygon>
                <g id="Group-8" transform="translate(71.000000, 9.563000)" fill="#ED1D24">
                    <path d="M0.3262,3.9051 C0.3262,2.1261 2.3522,0.6841 4.8512,0.6841 C7.3502,0.6841 9.3762,2.1261 9.3762,3.9051 C9.3762,5.6841 7.3502,7.1261 4.8512,7.1261 C2.3522,7.1261 0.3262,5.6841 0.3262,3.9051" id="Fill-4"></path>
                    <path d="M11.3581,23.2309 L11.3061,22.3959 L13.1841,22.3959 L13.1841,9.2649 L11.5151,9.2649 L11.5151,8.2739 L20.5121,7.8559 L20.5121,10.8809 L20.5501,11.1039 C21.4841,8.8959 23.3071,7.9609 25.3761,7.9609 C28.3491,7.9609 29.5111,9.6299 29.5111,11.7299 C29.5111,13.8289 28.5711,15.1199 25.7941,15.1199 C23.0161,15.1199 22.2991,12.9809 22.2991,11.6779 C22.2991,10.3739 22.6121,10.0469 22.3511,10.0469 C21.4751,10.4119 21.0281,11.5289 20.8001,12.6169 L20.8261,12.7729 L20.8261,22.4479 L23.0811,22.4479 L23.0811,23.2309 L11.3581,23.2309 Z" id="Fill-6"></path>
                </g>
                <polygon id="Fill-9" fill="#ED1D24" points="101.3972 32.7939 112.5342 32.7939 112.5342 32.0109 110.8642 32.0109 110.8642 17.6279 101.5542 18.0449 101.5542 18.8279 103.2222 18.8279 103.2222 31.9589 101.3452 31.9589"></polygon>
                <g id="Group-24" transform="translate(0.000000, 0.563000)">
                    <path d="M102.3885,12.9051 C102.3885,11.1261 104.4145,9.6841 106.9135,9.6841 C109.4125,9.6841 111.4385,11.1261 111.4385,12.9051 C111.4385,14.6841 109.4125,16.1261 106.9135,16.1261 C104.4145,16.1261 102.3885,14.6841 102.3885,12.9051" id="Fill-10" fill="#ED1D24"></path>
                    <path d="M126.0305,32.5439 L125.9785,29.9229 C125.2705,30.8879 123.5025,32.7499 120.2275,32.5959 C114.7375,32.5959 115.2595,28.0969 115.2595,28.0969 L115.2595,18.2649 L113.5895,18.2649 L113.5895,17.4819 L122.9015,17.0649 L122.9015,29.0879 C122.9015,29.9749 123.0445,30.4449 124.1005,30.4449 C125.3645,30.4449 125.7485,28.7749 125.7485,27.2739 L125.6525,18.1599 L123.9835,18.1599 L123.9835,17.3779 L133.2935,16.9609 L133.3985,31.4479 L135.0675,31.4479 L135.0675,32.2309 L126.0305,32.5439 Z" id="Fill-12" fill="#ED1D24"></path>
                    <path d="M136.5934,32.6487 L136.3324,26.8977 L136.9584,26.8977 C136.9584,26.8977 139.5664,31.8137 144.4834,31.8137 C145.6434,31.8137 146.4264,31.6177 146.4264,30.6137 C146.4264,29.1407 145.4854,29.1697 141.1454,27.6277 C136.5934,26.0107 136.3844,23.9117 136.3844,22.0857 C136.3844,20.6777 137.2714,16.9087 142.1884,16.9087 C143.9614,16.9087 146.5824,17.7437 146.5824,17.7437 L148.8254,16.9087 L149.8164,16.9087 L149.8164,22.3467 L149.0344,22.3467 C149.0344,22.3467 147.1044,17.7437 142.7614,17.7437 C141.9274,17.7437 141.1454,18.4217 141.1454,19.0477 C141.1454,22.1897 150.7414,20.3117 150.7414,27.6277 C150.7414,31.2397 147.6784,32.6487 144.6394,32.6487 C143.3354,32.6487 140.0494,31.7617 140.0494,31.7617 L137.7934,32.6487 L136.5934,32.6487 Z" id="Fill-14" fill="#ED1D24"></path>
                    <path d="M4.5255,0.8495 L37.0375,0.8495 C39.3085,0.8495 41.1505,2.6905 41.1505,4.9625 L41.1505,37.4745 C41.1505,39.7465 39.3085,41.5875 37.0375,41.5875 L4.5255,41.5875 C2.2535,41.5875 0.4125,39.7465 0.4125,37.4745 L0.4125,4.9625 C0.4125,2.6905 2.2535,0.8495 4.5255,0.8495 Z" id="Stroke-16" stroke="#B1B4B6" stroke-width="0.825"></path>
                    <path d="M24.9241,8.2177 C24.9241,5.3187 27.2731,2.9697 30.1721,2.9697 C33.0701,2.9697 35.4191,5.3187 35.4191,8.2177 C35.4191,11.1157 33.0701,13.4647 30.1721,13.4647 C27.2731,13.4647 24.9241,11.1157 24.9241,8.2177" id="Fill-18" fill="#B1B4B6"></path>
                    <path d="M4.4611,33.8761 C4.4611,30.9781 6.8101,28.6291 9.7091,28.6291 C12.6071,28.6291 14.9561,30.9781 14.9561,33.8761 C14.9561,36.7741 12.6071,39.1231 9.7091,39.1231 C6.8101,39.1231 4.4611,36.7741 4.4611,33.8761" id="Fill-20" fill="#B1B4B6"></path>
                    <path d="M27.5215,14.0993 C22.3925,12.0533 17.3085,10.9403 17.3255,7.2883 C17.3225,5.6773 18.7205,3.7523 18.7195,3.7493 L18.7835,3.6613 L18.6745,3.6613 C14.9455,3.6613 11.2345,4.7793 8.4525,6.9273 C5.6705,9.0743 3.8195,12.2543 3.8205,16.3633 C4.1935,23.8033 9.3815,26.3533 14.4435,28.0323 C19.5155,29.7143 24.4425,30.5583 24.4295,34.5123 C24.4325,35.9793 23.1625,38.1993 23.1625,38.2023 L23.1415,38.2393 L23.1725,38.2693 C23.3805,38.4673 24.0215,38.5773 24.9595,38.5813 C26.9155,38.5813 30.1175,38.0423 32.8365,36.2893 C35.5555,34.5373 37.7895,31.5613 37.7885,26.7123 C37.7895,19.1643 32.6405,16.1443 27.5215,14.0993" id="Fill-22" fill="#B1B4B6"></path>
                </g>
                <polygon id="Fill-25" fill="#00A651" points="50.048 42.422 83.613 42.422 83.613 40.406 50.048 40.406"></polygon>
                <polygon id="Fill-26" fill="#FFFFFF" points="83.613 42.422 117.179 42.422 117.179 40.406 83.613 40.406"></polygon>
                <polygon id="Fill-27" fill="#ED1D24" points="117.177 42.422 150.742 42.422 150.742 40.406 117.177 40.406"></polygon>
            </g>
        </g>
    </g>
</svg>