<?xml version="1.0" encoding="UTF-8"?>
<svg width="54px" height="54px" viewBox="0 0 54 54" version="1.1" xmlns="http://www.w3.org/2000/svg" xmlns:xlink="http://www.w3.org/1999/xlink">
    <defs></defs>
    <g id="Page-1" stroke="none" stroke-width="1" fill="none" fill-rule="evenodd">
        <g id="sprite" transform="translate(-132.000000, -180.000000)">
            <g id="Icon" transform="translate(132.000000, 180.000000)">
                <path d="M39.6285605,26.1274355 C40.1910698,24.2666544 40.501575,22.2933716 40.501575,20.2503375 C40.501575,9.06540109 31.4339239,0 20.2512375,0 C17.5849431,0 15.0446507,0.526508775 12.7136119,1.46252437 L22.501275,11.2501875 L20.2512375,20.2503375 L11.2510875,22.500375 L1.46342438,12.7127119 C0.527408775,15.0437507 0.0009,17.5840431 0.0009,20.2503375 C0.0009,31.4330239 9.06630109,40.500675 20.2512375,40.500675 C22.2942716,40.500675 24.2653044,40.1901698 26.1283355,39.6276605 L40.501575,54.0009 L54.0018,40.500675 L39.6285605,26.1274355 Z M46.4551742,44.8634977 L39.0458007,37.4541242 L37.4550242,39.0449007 L44.8643977,46.4542742 L40.501575,50.8170969 L26.7650961,37.082868 C24.6208103,37.7331289 22.5102751,38.2506375 20.2512375,38.2506375 C10.324072,38.2506375 2.2509375,30.1752529 2.2509375,20.2503375 C2.2509375,19.1500692 2.34993915,18.058801 2.55244252,16.983283 L10.560326,24.9911665 C10.560326,24.9911665 18.6694611,22.9638827 22.1052684,22.1043684 L24.9920665,10.559426 L16.984183,2.55154252 C18.059701,2.34903915 19.1509692,2.2500375 20.2512375,2.2500375 C30.1761529,2.2500375 38.2515375,10.323172 38.2515375,20.2503375 C38.2515375,22.5071251 37.7317788,24.6221604 37.083768,26.7641961 C41.6603443,31.3430224 46.2391706,35.9195986 50.8179969,40.500675 L46.4551742,44.8634977 Z" fill="#333333"></path>
                <polygon id="Fill-4" fill="#B20712" points="28.4550992 30.0449757 32.9551742 34.5450507 34.5459507 32.9542742 30.0458757 28.4541992"></polygon>
            </g>
        </g>
    </g>
</svg>