<?xml version="1.0" encoding="UTF-8"?>
<svg width="700px" height="400px" viewBox="0 0 700 400" version="1.1" xmlns="http://www.w3.org/2000/svg" xmlns:xlink="http://www.w3.org/1999/xlink">
    <defs></defs>
    <g id="Page-1" stroke="none" stroke-width="1" fill="none" fill-rule="evenodd">
        <g id="sprite">
            <g id="logo" transform="translate(40.000000, 40.000000)">
                <path d="M50.2009,25.4133 L50.4619,33.1593 L51.6229,33.1593 L54.7519,31.8553 C54.7519,31.8553 57.3079,33.3153 60.1379,33.3153 C62.9679,33.3153 69.0309,32.3373 69.0309,26.2603 C69.0309,17.5233 55.6909,17.4193 55.6909,13.5983 C55.6909,12.6593 56.2259,11.5643 58.4169,11.5643 C60.6069,11.5643 63.8409,12.6073 66.5669,17.8363 L67.5709,17.8363 L67.2579,10.7293 C67.2579,10.7293 66.8799,10.5213 66.4099,10.6773 C65.9409,10.8343 63.1239,11.8253 63.1239,11.8253 C63.1239,11.8253 60.8809,10.6773 58.3119,10.6773 C55.7429,10.6773 50.3569,11.5643 50.3569,17.9413 C50.3569,22.4403 55.0779,24.8523 57.7909,26.2083 C60.5029,27.5643 63.1239,28.1253 63.1239,30.3813 C63.1239,31.2813 61.9639,32.3773 60.1899,32.3773 C58.4169,32.3773 53.9039,31.2163 51.2969,25.3613 C50.8269,25.3613 50.2009,25.4133 50.2009,25.4133" id="Fill-1" fill="#ED1D24"></path>
                <polygon id="Fill-3" fill="#ED1D24" points="70.3352 32.7939 81.4722 32.7939 81.4722 32.0109 79.8022 32.0109 79.8022 17.6279 70.4922 18.0449 70.4922 18.8279 72.1612 18.8279 72.1612 31.9589 70.2832 31.9589"></polygon>
                <g id="Group-8" transform="translate(71.000000, 9.563000)" fill="#ED1D24">
                    <path d="M0.3262,3.9051 C0.3262,2.1261 2.3522,0.6841 4.8512,0.6841 C7.3502,0.6841 9.3762,2.1261 9.3762,3.9051 C9.3762,5.6841 7.3502,7.1261 4.8512,7.1261 C2.3522,7.1261 0.3262,5.6841 0.3262,3.9051" id="Fill-4"></path>
                    <path d="M11.3581,23.2309 L11.3061,22.3959 L13.1841,22.3959 L13.1841,9.2649 L11.5151,9.2649 L11.5151,8.2739 L20.5121,7.8559 L20.5121,10.8809 L20.5501,11.1039 C21.4841,8.8959 23.3071,7.9609 25.3761,7.9609 C28.3491,7.9609 29.5111,9.6299 29.5111,11.7299 C29.5111,13.8289 28.5711,15.1199 25.7941,15.1199 C23.0161,15.1199 22.2991,12.9809 22.2991,11.6779 C22.2991,10.3739 22.6121,10.0469 22.3511,10.0469 C21.4751,10.4119 21.0281,11.5289 20.8001,12.6169 L20.8261,12.7729 L20.8261,22.4479 L23.0811,22.4479 L23.0811,23.2309 L11.3581,23.2309 Z" id="Fill-6"></path>
                </g>
                <polygon id="Fill-9" fill="#ED1D24" points="101.3972 32.7939 112.5342 32.7939 112.5342 32.0109 110.8642 32.0109 110.8642 17.6279 101.5542 18.0449 101.5542 18.8279 103.2222 18.8279 103.2222 31.9589 101.3452 31.9589"></polygon>
                <g id="Group-24" transform="translate(0.000000, 0.563000)">
                    <path d="M102.3885,12.9051 C102.3885,11.1261 104.4145,9.6841 106.9135,9.6841 C109.4125,9.6841 111.4385,11.1261 111.4385,12.9051 C111.4385,14.6841 109.4125,16.1261 106.9135,16.1261 C104.4145,16.1261 102.3885,14.6841 102.3885,12.9051" id="Fill-10" fill="#ED1D24"></path>
                    <path d="M126.0305,32.5439 L125.9785,29.9229 C125.2705,30.8879 123.5025,32.7499 120.2275,32.5959 C114.7375,32.5959 115.2595,28.0969 115.2595,28.0969 L115.2595,18.2649 L113.5895,18.2649 L113.5895,17.4819 L122.9015,17.0649 L122.9015,29.0879 C122.9015,29.9749 123.0445,30.4449 124.1005,30.4449 C125.3645,30.4449 125.7485,28.7749 125.7485,27.2739 L125.6525,18.1599 L123.9835,18.1599 L123.9835,17.3779 L133.2935,16.9609 L133.3985,31.4479 L135.0675,31.4479 L135.0675,32.2309 L126.0305,32.5439 Z" id="Fill-12" fill="#ED1D24"></path>
                    <path d="M136.5934,32.6487 L136.3324,26.8977 L136.9584,26.8977 C136.9584,26.8977 139.5664,31.8137 144.4834,31.8137 C145.6434,31.8137 146.4264,31.6177 146.4264,30.6137 C146.4264,29.1407 145.4854,29.1697 141.1454,27.6277 C136.5934,26.0107 136.3844,23.9117 136.3844,22.0857 C136.3844,20.6777 137.2714,16.9087 142.1884,16.9087 C143.9614,16.9087 146.5824,17.7437 146.5824,17.7437 L148.8254,16.9087 L149.8164,16.9087 L149.8164,22.3467 L149.0344,22.3467 C149.0344,22.3467 147.1044,17.7437 142.7614,17.7437 C141.9274,17.7437 141.1454,18.4217 141.1454,19.0477 C141.1454,22.1897 150.7414,20.3117 150.7414,27.6277 C150.7414,31.2397 147.6784,32.6487 144.6394,32.6487 C143.3354,32.6487 140.0494,31.7617 140.0494,31.7617 L137.7934,32.6487 L136.5934,32.6487 Z" id="Fill-14" fill="#ED1D24"></path>
                    <path d="M4.5255,0.8495 L37.0375,0.8495 C39.3085,0.8495 41.1505,2.6905 41.1505,4.9625 L41.1505,37.4745 C41.1505,39.7465 39.3085,41.5875 37.0375,41.5875 L4.5255,41.5875 C2.2535,41.5875 0.4125,39.7465 0.4125,37.4745 L0.4125,4.9625 C0.4125,2.6905 2.2535,0.8495 4.5255,0.8495 Z" id="Stroke-16" stroke="#B1B4B6" stroke-width="0.825"></path>
                    <path d="M24.9241,8.2177 C24.9241,5.3187 27.2731,2.9697 30.1721,2.9697 C33.0701,2.9697 35.4191,5.3187 35.4191,8.2177 C35.4191,11.1157 33.0701,13.4647 30.1721,13.4647 C27.2731,13.4647 24.9241,11.1157 24.9241,8.2177" id="Fill-18" fill="#B1B4B6"></path>
                    <path d="M4.4611,33.8761 C4.4611,30.9781 6.8101,28.6291 9.7091,28.6291 C12.6071,28.6291 14.9561,30.9781 14.9561,33.8761 C14.9561,36.7741 12.6071,39.1231 9.7091,39.1231 C6.8101,39.1231 4.4611,36.7741 4.4611,33.8761" id="Fill-20" fill="#B1B4B6"></path>
                    <path d="M27.5215,14.0993 C22.3925,12.0533 17.3085,10.9403 17.3255,7.2883 C17.3225,5.6773 18.7205,3.7523 18.7195,3.7493 L18.7835,3.6613 L18.6745,3.6613 C14.9455,3.6613 11.2345,4.7793 8.4525,6.9273 C5.6705,9.0743 3.8195,12.2543 3.8205,16.3633 C4.1935,23.8033 9.3815,26.3533 14.4435,28.0323 C19.5155,29.7143 24.4425,30.5583 24.4295,34.5123 C24.4325,35.9793 23.1625,38.1993 23.1625,38.2023 L23.1415,38.2393 L23.1725,38.2693 C23.3805,38.4673 24.0215,38.5773 24.9595,38.5813 C26.9155,38.5813 30.1175,38.0423 32.8365,36.2893 C35.5555,34.5373 37.7895,31.5613 37.7885,26.7123 C37.7895,19.1643 32.6405,16.1443 27.5215,14.0993" id="Fill-22" fill="#B1B4B6"></path>
                </g>
                <polygon id="Fill-25" fill="#00A651" points="50.048 42.422 83.613 42.422 83.613 40.406 50.048 40.406"></polygon>
                <polygon id="Fill-26" fill="#FFFFFF" points="83.613 42.422 117.179 42.422 117.179 40.406 83.613 40.406"></polygon>
                <polygon id="Fill-27" fill="#ED1D24" points="117.177 42.422 150.742 42.422 150.742 40.406 117.177 40.406"></polygon>
            </g>
            <g id="social" transform="translate(40.000000, 120.000000)" fill="#8F939C">
                <path d="M14,0 C6.26791667,0 0,6.26791667 0,14 C0,21.7320833 6.26791667,28 14,28 C21.7320833,28 28,21.7320833 28,14 C28,6.26791667 21.7320833,0 14,0 Z M19.3841667,15.7952083 C19.3841667,15.7952083 20.6222917,17.0172917 20.9270833,17.5845833 C20.9358333,17.59625 20.9402083,17.6079167 20.943125,17.61375 C21.0670833,17.8222917 21.09625,17.9841667 21.035,18.1052083 C20.9329167,18.3064583 20.5829167,18.405625 20.4633333,18.414375 L18.2758333,18.414375 C18.1241667,18.414375 17.80625,18.375 17.42125,18.1095833 C17.1252083,17.9025 16.8335417,17.5627083 16.5491667,17.2316667 C16.1247917,16.73875 15.7572917,16.3129167 15.386875,16.3129167 C15.3402083,16.3129167 15.2920833,16.3202083 15.2483333,16.3347917 C14.9683333,16.4252083 14.6095833,16.8247917 14.6095833,17.889375 C14.6095833,18.221875 14.3470833,18.4129167 14.161875,18.4129167 L13.16,18.4129167 C12.81875,18.4129167 11.0410417,18.2933333 9.46604167,16.6322917 C7.538125,14.5979167 5.80270833,10.5175 5.788125,10.4795833 C5.67875,10.215625 5.90479167,10.0741667 6.15125,10.0741667 L8.360625,10.0741667 C8.65520833,10.0741667 8.75145833,10.2535417 8.81854167,10.4125 C8.89729167,10.5977083 9.18604167,11.3341667 9.66,12.1625 C10.4285417,13.5129167 10.8995833,14.06125 11.2772917,14.06125 C11.34875,14.06125 11.414375,14.0422917 11.48,14.00875 C11.9729167,13.7345833 11.8810417,11.9772917 11.8591667,11.6127083 C11.8591667,11.5441667 11.8577083,10.8266667 11.6054167,10.4825 C11.4245833,10.233125 11.116875,10.1383333 10.9302083,10.1033333 C10.9783333,10.031875 11.08625,9.9225 11.2204167,9.856875 C11.55875,9.68770833 12.1683333,9.66291667 12.7735417,9.66291667 L13.1104167,9.66291667 C13.7666667,9.67166667 13.9358333,9.71395833 14.1735417,9.77375 C14.6547917,9.88895833 14.665,10.1995833 14.6227083,11.2627083 C14.6095833,11.5645833 14.5964583,11.9058333 14.5964583,12.3083333 C14.5964583,12.3958333 14.5920833,12.4891667 14.5920833,12.5883333 C14.5775,13.129375 14.56,13.7433333 14.9420833,13.995625 C14.9916667,14.02625 15.0485417,14.04375 15.1083333,14.04375 C15.2410417,14.04375 15.640625,14.04375 16.7227083,12.1872917 C17.1966667,11.3677083 17.5641667,10.4008333 17.5904167,10.329375 C17.6122917,10.2914583 17.6764583,10.1747917 17.7522917,10.1295833 C17.8120833,10.0945833 17.8922917,10.0872917 17.933125,10.0872917 L20.5304167,10.0872917 C20.8133333,10.0872917 21.0072917,10.1295833 21.04375,10.2389583 C21.1079167,10.4125 21.0320833,10.941875 19.8464583,12.5475 C19.6466667,12.8129167 19.4702083,13.0447917 19.3170833,13.2460417 C18.2422917,14.6547917 18.2422917,14.72625 19.3841667,15.7952083 Z" id="Shape"></path>
                <path d="M52,0 C44.2679167,0 38,6.26791667 38,14 C38,21.7320833 44.2679167,28 52,28 C59.7320833,28 66,21.7320833 66,14 C66,6.26791667 59.7320833,0 52,0 Z M55.31625,9.67458333 L53.211875,9.67458333 C52.9625,9.67458333 52.6854167,10.0027083 52.6854167,10.43875 L52.6854167,11.9583333 L55.3177083,11.9583333 L54.9195833,14.1254167 L52.6854167,14.1254167 L52.6854167,20.6310417 L50.201875,20.6310417 L50.201875,14.1254167 L47.94875,14.1254167 L47.94875,11.9583333 L50.201875,11.9583333 L50.201875,10.68375 C50.201875,8.855 51.470625,7.36895833 53.211875,7.36895833 L55.31625,7.36895833 L55.31625,9.67458333 Z" id="Shape"></path>
                <path d="M90,0 C82.2679167,0 76,6.26791667 76,14 C76,21.7320833 82.2679167,28 90,28 C97.7320833,28 104,21.7320833 104,14 C104,6.26791667 97.7320833,0 90,0 Z M95.6947917,11.4683333 C95.700625,11.5879167 95.7020833,11.7075 95.7020833,11.8241667 C95.7020833,15.47 92.9297917,19.6714583 87.8577083,19.6714583 C86.3002083,19.6714583 84.850625,19.2164583 83.6314583,18.431875 C83.8458333,18.458125 84.0660417,18.4683333 84.2891667,18.4683333 C85.58125,18.4683333 86.7697917,18.029375 87.7133333,17.2885417 C86.5072917,17.2652083 85.489375,16.4689583 85.1379167,15.3752083 C85.305625,15.4058333 85.4777083,15.4233333 85.655625,15.4233333 C85.9064583,15.4233333 86.1514583,15.3897917 86.381875,15.3270833 C85.1204167,15.0733333 84.1695833,13.9591667 84.1695833,12.6233333 L84.1695833,12.5897917 C84.5414583,12.7954167 84.9672917,12.9208333 85.419375,12.9354167 C84.6785417,12.4395833 84.1929167,11.5966667 84.1929167,10.6385417 C84.1929167,10.1339583 84.3285417,9.65854167 84.56625,9.25166667 C85.926875,10.92 87.956875,12.0166667 90.249375,12.1347917 C90.20125,11.9320833 90.1779167,11.7220833 90.1779167,11.5047917 C90.1779167,9.98375 91.4116667,8.74708333 92.935625,8.74708333 C93.7275,8.74708333 94.445,9.0825 94.948125,9.61916667 C95.5766667,9.49375 96.1658333,9.26625 96.698125,8.94979167 C96.4925,9.59291667 96.0564583,10.1339583 95.48625,10.4766667 C96.0447917,10.408125 96.575625,10.2608333 97.07,10.040625 C96.7010417,10.5933333 96.2329167,11.0804167 95.6947917,11.4683333 Z" id="Shape"></path>
                <path d="M128,0 C120.267917,0 114,6.26791667 114,14 C114,21.7320833 120.267917,28 128,28 C135.732083,28 142,21.7320833 142,14 C142,6.26791667 135.732083,0 128,0 Z M124.572917,19.8027083 L121.737917,19.8027083 L121.737917,10.679375 L124.572917,10.679375 L124.572917,19.8027083 Z M123.137917,9.559375 C122.2425,9.559375 121.663542,8.925 121.663542,8.14041667 C121.663542,7.33979167 122.26,6.724375 123.174375,6.724375 C124.08875,6.724375 124.64875,7.33979167 124.66625,8.14041667 C124.66625,8.925 124.08875,9.559375 123.137917,9.559375 Z M134.927083,19.8027083 L132.092083,19.8027083 L132.092083,14.7466667 C132.092083,13.5697917 131.680833,12.770625 130.655625,12.770625 C129.8725,12.770625 129.407292,13.3116667 129.201667,13.8322917 C129.125833,14.0175 129.106875,14.28 129.106875,14.5410417 L129.106875,19.80125 L126.270417,19.80125 L126.270417,13.58875 C126.270417,12.4497917 126.233958,11.4975 126.196042,10.6779167 L128.659167,10.6779167 L128.788958,11.9452083 L128.845833,11.9452083 C129.219167,11.3502083 130.133542,10.4722917 131.663333,10.4722917 C133.528542,10.4722917 134.927083,11.7220833 134.927083,14.4083333 L134.927083,19.8027083 Z" id="Shape"></path>
                <path d="M166,0 C158.267917,0 152,6.26791667 152,14 C152,21.7320833 158.267917,28 166,28 C173.732083,28 180,21.7320833 180,14 C180,6.26791667 173.732083,0 166,0 Z M166.958125,17.3177083 C166.059792,17.2491667 165.683542,16.804375 164.980625,16.3785417 C164.594167,18.4070833 164.121667,20.3525 162.721667,21.3689583 C162.288542,18.300625 163.354583,15.999375 163.850417,13.55375 C163.006042,12.131875 163.951042,9.27208333 165.733125,9.975 C167.925,10.8441667 163.834375,15.2614583 166.580417,15.8141667 C169.4475,16.38875 170.618542,10.8383333 168.840833,9.03583333 C166.27125,6.42979167 161.363958,8.97604167 161.967708,12.7064583 C162.113542,13.6179167 163.057083,13.895 162.343958,15.1535417 C160.700417,14.7889583 160.208958,13.4925 160.273125,11.764375 C160.37375,8.93520833 162.815,6.95333333 165.262083,6.680625 C168.358125,6.33645833 171.263125,7.81666667 171.665625,10.7304167 C172.11625,14.0175 170.267083,17.574375 166.958125,17.3177083 Z" id="Shape"></path>
                <path d="M204,28 C196.267625,28 190,21.7322322 190,14 C190,6.26776777 196.267625,0 204,0 C211.7315,0 218,6.26776777 218,14 C218,21.7322322 211.7315,28 204,28 L204,28 Z M212.017625,10.6742993 C211.979125,9.81506507 211.842625,9.2291041 211.643125,8.71584084 C211.436625,8.18593594 211.161,7.73573574 210.712125,7.28728729 C210.264125,6.83883884 209.814375,6.56293794 209.284125,6.35710711 C208.7705,6.15740741 208.18425,6.02077077 207.325875,5.98223223 C206.46575,5.94281782 206.190125,5.93318318 204,5.93318318 C201.809,5.93318318 201.53425,5.94281782 200.674125,5.98223223 C199.814875,6.02077077 199.228625,6.15740741 198.715875,6.35710711 C198.185625,6.56293794 197.735875,6.83883884 197.287,7.28728729 C196.839,7.73573574 196.5625,8.18593594 196.356875,8.71584084 C196.157375,9.2291041 196.020875,9.81506507 195.9815,10.6742993 C195.942125,11.5344094 195.933375,11.8094344 195.933375,14 C195.933375,16.1905656 195.942125,16.4655906 195.9815,17.3257007 C196.020875,18.1840591 196.157375,18.7708959 196.356875,19.2841592 C196.5625,19.8140641 196.839,20.2642643 197.287,20.7127127 C197.735875,21.1611612 198.185625,21.4370621 198.715875,21.6437688 C199.228625,21.8425926 199.814875,21.9792292 200.674125,22.0177678 C201.53425,22.0571822 201.809,22.0668168 204,22.0668168 C206.190125,22.0668168 206.46575,22.0571822 207.325875,22.0177678 C208.18425,21.9792292 208.7705,21.8425926 209.284125,21.6437688 C209.814375,21.4370621 210.264125,21.1611612 210.712125,20.7127127 C211.161,20.2642643 211.436625,19.8140641 211.643125,19.2841592 C211.842625,18.7708959 211.979125,18.1840591 212.017625,17.3257007 C212.057,16.4655906 212.066625,16.1905656 212.066625,14 C212.066625,11.8094344 212.057,11.5344094 212.017625,10.6742993 L212.017625,10.6742993 Z M210.28775,18.7577578 C210.141625,19.1335085 209.9675,19.4032783 209.684875,19.6844344 C209.40225,19.9673423 209.133625,20.1425175 208.757375,20.2887888 C208.473,20.3991491 208.046,20.5296547 207.259375,20.5655656 C206.408875,20.60498 206.153375,20.6128629 204,20.6128629 C201.84575,20.6128629 201.59025,20.60498 200.73975,20.5655656 C199.954,20.5296547 199.527,20.3991491 199.242625,20.2887888 C198.8655,20.1425175 198.596875,19.9673423 198.315125,19.6844344 C198.0325,19.4032783 197.8575,19.1335085 197.711375,18.7577578 C197.601125,18.4730981 197.469875,18.0465465 197.434,17.26001 C197.394625,16.4095345 197.38675,16.1537788 197.38675,14 C197.38675,11.8462212 197.394625,11.5913413 197.434,10.73999 C197.469875,9.95432933 197.601125,9.5269019 197.711375,9.24311812 C197.8575,8.86649149 198.0325,8.5975976 198.315125,8.31468969 C198.596875,8.03265766 198.8655,7.85748248 199.242625,7.71208709 C199.527,7.60172673 199.954,7.47034535 200.73975,7.43443443 C201.591125,7.39502002 201.84575,7.38713714 204,7.38713714 C206.153375,7.38713714 206.408875,7.39502002 207.259375,7.43443443 C208.046,7.47034535 208.473,7.60172673 208.757375,7.71208709 C209.133625,7.85748248 209.40225,8.03265766 209.684875,8.31468969 C209.9675,8.5975976 210.141625,8.86649149 210.28775,9.24311812 C210.398875,9.5269019 210.530125,9.95432933 210.566,10.73999 C210.6045,11.5913413 210.61325,11.8462212 210.61325,14 C210.61325,16.1537788 210.6045,16.4095345 210.566,17.26001 C210.530125,18.0465465 210.398875,18.4730981 210.28775,18.7577578 L210.28775,18.7577578 Z M204,9.85798298 C201.711875,9.85798298 199.85775,11.7122122 199.85775,14 C199.85775,16.2877878 201.711875,18.142017 204,18.142017 C206.28725,18.142017 208.14225,16.2877878 208.14225,14 C208.14225,11.7122122 206.28725,9.85798298 204,9.85798298 L204,9.85798298 Z M208.305875,8.72635135 C207.77125,8.72635135 207.338125,9.15990991 207.338125,9.69419419 C207.338125,10.2284785 207.77125,10.662037 208.305875,10.662037 C208.8405,10.662037 209.273625,10.2284785 209.273625,9.69419419 C209.273625,9.15990991 208.8405,8.72635135 208.305875,8.72635135 L208.305875,8.72635135 Z M204,16.6889389 C202.515125,16.6889389 201.311125,15.4846096 201.311125,14 C201.311125,12.5153904 202.515125,11.3110611 204,11.3110611 C205.484875,11.3110611 206.688875,12.5153904 206.688875,14 C206.688875,15.4846096 205.484875,16.6889389 204,16.6889389 L204,16.6889389 Z" id="Shape-Copy-5"></path>
            </g>
            <path d="M267.829097,57.020944 L263.182211,52.4463895 C264.39865,51.1241013 265.146405,49.3798062 265.146405,47.4554548 C265.146405,43.3366677 261.755906,40 257.573202,40 C253.390499,40 250,43.3366677 250,47.4554548 C250,51.5686152 253.390499,54.9052829 257.573202,54.9052829 C259.380418,54.9052829 261.037971,54.2807127 262.339931,53.2397624 L267.005384,57.8311972 C267.233255,58.0562676 267.601788,58.0562676 267.829097,57.8311972 C268.056968,57.6117537 268.056968,57.2460144 267.829097,57.020944" id="search" fill="#FFFFFF"></path>
            <path d="M353.342,44.6005 L350.201,41.1805 C349.933,40.9105 349.933,40.4735 350.201,40.2025 C350.469,39.9325 350.902,39.9325 351.17,40.2025 L355,44.1105 C355.268,44.3815 355.268,44.8195 355,45.0895 L351.17,48.9975 C350.903,49.2695 350.469,49.2675 350.201,48.9975 C349.933,48.7285 349.933,48.2905 350.201,48.0195 L353.342,44.6005 Z" id="Shape" fill="#B20712"></path>
            <path d="M421.648,46.3622805 C421.515,46.0072805 425.187,42.7282805 423.046,40.0712805 C422.545,39.4502805 420.845,43.0462805 418.431,44.6742805 C417.099,45.5722805 414,47.4842805 414,48.5412805 L414,55.3832805 C414,56.6542805 418.914,58.0002805 422.648,58.0002805 C424.017,58.0002805 426,49.4242805 426,48.0622805 C426,46.6942805 421.779,46.7182805 421.648,46.3622805 Z M413,46.4572805 C412.342,46.4572805 410,46.8572805 410,49.5802805 L410,54.4282805 C410,57.1492805 412.342,57.4492805 413,57.4492805 C413.657,57.4492805 412,56.8772805 412,55.1892805 L412,48.8162805 C412,47.0482805 413.657,46.4572805 413,46.4572805 Z" id="Shape" fill="#333333"></path>
            <path d="M470.606602,49.1923882 L461.414214,40 L460,41.4142136 L469.192388,50.6066017 L460,59.7989899 L461.414214,61.2132034 L470.606602,52.0208153 L479.79899,61.2132034 L481.213203,59.7989899 L472.020815,50.6066017 L481.213203,41.4142136 L479.79899,40 L470.606602,49.1923882 Z" id="Combined-Shape" fill="#333333"></path>
            <path d="M483.706668,100.208702 C483.313557,99.9304328 482.677378,99.9304328 482.286268,100.208702 L471.999375,108.26423 L461.714482,100.208702 C461.322372,99.9304328 460.686193,99.9304328 460.294083,100.208702 C459.901972,100.494106 459.901972,100.950752 460.294083,101.229021 L471.240161,109.798277 C471.44922,109.948114 471.726298,110.01233 471.999375,109.998059 C472.273452,110.01233 472.55053,109.948114 472.760589,109.798277 L483.706668,101.229021 C484.097777,100.950752 484.097777,100.494106 483.706668,100.208702" id="chevron-down" fill="#FFFFFF" opacity="0.200000003"></path>
            <g id="question" transform="translate(410.000000, 90.000000)" fill="#B20712">
                <g id="Layer_1">
                    <g id="Group">
                        <path d="M8,16 C3.6,16 0,12.4 0,8 C0,3.6 3.6,0 8,0 C12.4,0 16,3.6 16,8 C16,12.4 12.4,16 8,16 Z M8,1.33333333 C4.33333333,1.33333333 1.33333333,4.33333333 1.33333333,8 C1.33333333,11.6666667 4.33333333,14.6666667 8,14.6666667 C11.6666667,14.6666667 14.6666667,11.6666667 14.6666667,8 C14.6666667,4.33333333 11.6666667,1.33333333 8,1.33333333 Z" id="Shape"></path>
                        <path d="M8,10.6666667 C7.6,10.6666667 7.33333333,10.4 7.33333333,10 L7.33333333,9.53333333 C7.33333333,8.53333333 7.86666667,7.66666667 8.66666667,7.2 C9.2,6.93333333 9.46666667,6.33333333 9.33333333,5.8 C9.26666667,5.26666667 8.8,4.8 8.26666667,4.73333333 C7.86666667,4.66666667 7.46666667,4.73333333 7.13333333,5 C6.86666667,5.2 6.66666667,5.6 6.66666667,6 C6.66666667,6.4 6.4,6.66666667 6,6.66666667 C5.6,6.66666667 5.33333333,6.4 5.33333333,6 C5.33333333,5.2 5.66666667,4.46666667 6.26666667,3.93333333 C6.86666667,3.4 7.66666667,3.2 8.46666667,3.33333333 C9.53333333,3.53333333 10.4,4.4 10.6,5.46666667 C10.8,6.6 10.2666667,7.73333333 9.26666667,8.26666667 C8.86666667,8.46666667 8.66666667,8.93333333 8.66666667,9.46666667 L8.66666667,10 C8.66666667,10.4 8.4,10.6666667 8,10.6666667 Z" id="Shape"></path>
                        <g transform="translate(6.666667, 10.666667)">
                            <circle id="Oval" cx="1.33333333" cy="1.33333333" r="0.666666667"></circle>
                            <path d="M1.33333333,2.33333333 C0.8,2.33333333 0.333333333,1.86666667 0.333333333,1.33333333 C0.333333333,0.8 0.8,0.333333333 1.33333333,0.333333333 C1.86666667,0.333333333 2.33333333,0.8 2.33333333,1.33333333 C2.33333333,1.86666667 1.86666667,2.33333333 1.33333333,2.33333333 Z M1.33333333,1 C1.13333333,1 1,1.13333333 1,1.33333333 C1,1.53333333 1.13333333,1.66666667 1.33333333,1.66666667 C1.53333333,1.66666667 1.66666667,1.53333333 1.66666667,1.33333333 C1.66666667,1.13333333 1.53333333,1 1.33333333,1 Z" id="Shape"></path>
                        </g>
                    </g>
                </g>
            </g>
            <g id="question-copy" transform="translate(410.000000, 120.000000)">
                <g id="Layer_1">
                    <g id="Group">
                        <path d="M8,16 C3.6,16 0,12.4 0,8 C0,3.6 3.6,0 8,0 C12.4,0 16,3.6 16,8 C16,12.4 12.4,16 8,16 Z M8,1.33333333 C4.33333333,1.33333333 1.33333333,4.33333333 1.33333333,8 C1.33333333,11.6666667 4.33333333,14.6666667 8,14.6666667 C11.6666667,14.6666667 14.6666667,11.6666667 14.6666667,8 C14.6666667,4.33333333 11.6666667,1.33333333 8,1.33333333 Z" id="Shape" fill="#B20712"></path>
                        <circle id="Oval-2" fill="#B20712" cx="8" cy="8" r="7"></circle>
                        <path d="M8,10.6666667 C7.6,10.6666667 7.33333333,10.4 7.33333333,10 L7.33333333,9.53333333 C7.33333333,8.53333333 7.86666667,7.66666667 8.66666667,7.2 C9.2,6.93333333 9.46666667,6.33333333 9.33333333,5.8 C9.26666667,5.26666667 8.8,4.8 8.26666667,4.73333333 C7.86666667,4.66666667 7.46666667,4.73333333 7.13333333,5 C6.86666667,5.2 6.66666667,5.6 6.66666667,6 C6.66666667,6.4 6.4,6.66666667 6,6.66666667 C5.6,6.66666667 5.33333333,6.4 5.33333333,6 C5.33333333,5.2 5.66666667,4.46666667 6.26666667,3.93333333 C6.86666667,3.4 7.66666667,3.2 8.46666667,3.33333333 C9.53333333,3.53333333 10.4,4.4 10.6,5.46666667 C10.8,6.6 10.2666667,7.73333333 9.26666667,8.26666667 C8.86666667,8.46666667 8.66666667,8.93333333 8.66666667,9.46666667 L8.66666667,10 C8.66666667,10.4 8.4,10.6666667 8,10.6666667 Z" id="Shape" fill="#FFFFFF"></path>
                        <g transform="translate(6.666667, 10.666667)" fill="#FFFFFF">
                            <circle id="Oval" cx="1.33333333" cy="1.33333333" r="0.666666667"></circle>
                            <path d="M1.33333333,2.33333333 C0.8,2.33333333 0.333333333,1.86666667 0.333333333,1.33333333 C0.333333333,0.8 0.8,0.333333333 1.33333333,0.333333333 C1.86666667,0.333333333 2.33333333,0.8 2.33333333,1.33333333 C2.33333333,1.86666667 1.86666667,2.33333333 1.33333333,2.33333333 Z M1.33333333,1 C1.13333333,1 1,1.13333333 1,1.33333333 C1,1.53333333 1.13333333,1.66666667 1.33333333,1.66666667 C1.53333333,1.66666667 1.66666667,1.53333333 1.66666667,1.33333333 C1.66666667,1.13333333 1.53333333,1 1.33333333,1 Z" id="Shape"></path>
                        </g>
                    </g>
                </g>
            </g>
            <g id="Icon" transform="translate(40.000000, 180.000000)">
                <path d="M11.2496719,13.500225 L3.18140721,13.500225 L13.4996063,3.18155303 L13.4996063,11.2501875 C13.4996063,12.4922082 12.4916357,13.500225 11.2496719,13.500225 L11.2496719,13.500225 Z M2.24993438,45.00075 L2.24993438,15.7502625 L11.2496719,15.7502625 C13.7358494,15.7502625 15.7495406,13.7364789 15.7495406,11.2501875 L15.7495406,2.2500375 L35.99895,2.2500375 C37.2386639,2.2500375 38.2488844,3.26030434 38.2488844,4.500075 L38.2488844,13.500225 L40.4988188,13.500225 L40.4988188,4.500075 C40.4988188,2.01378356 38.4851275,0 35.99895,0 L13.4996063,0 L0,13.500225 L0,45.00075 C0,47.4870415 2.01369127,49.500825 4.49986875,49.500825 L31.4990813,49.500825 L31.4990813,47.2507875 L4.49986875,47.2507875 C3.26015491,47.2507875 2.24993438,46.2405207 2.24993438,45.00075 Z M38.2488844,22.500375 L40.4988188,22.500375 L40.4988188,18.0003 L38.2488844,18.0003 L38.2488844,22.500375 Z" id="Fill-6" fill="#333333"></path>
                <polygon id="Fill-2" fill="#B20712" points="8.99973751 22.500375 31.5013312 22.500375 31.5013312 20.2503375 8.99973751 20.2503375"></polygon>
                <path d="M26.9985375,42.7498125 L36.000525,42.7498125 L36.000525,54 L44.9980126,54 L44.9980126,42.7498125 L54,42.7498125 L40.6871383,27.0018 L26.9985375,42.7498125 Z M40.662389,30.4578576 L49.1513914,40.499775 L42.7480782,40.499775 L42.7480782,51.7522125 L38.2482094,51.7522125 L38.2482094,40.499775 L31.9348936,40.499775 L40.662389,30.4578576 Z" id="Combined-Shape" fill="#85744F"></path>
                <polygon id="Fill-3" fill="#B20712" points="26.9992125 29.2504875 31.5013312 29.2504875 31.5013312 27.00045 26.9992125 27.00045"></polygon>
                <polygon id="Fill-4" fill="#B20712" points="8.99973751 29.2504875 22.4993438 29.2504875 22.4993438 27.00045 8.99973751 27.00045"></polygon>
                <polygon id="Fill-5" fill="#B20712" points="20.2494094 15.7502625 31.4990813 15.7502625 31.4990813 13.500225 20.2494094 13.500225"></polygon>
            </g>
            <g id="Icon" transform="translate(132.000000, 180.000000)">
                <path d="M39.6285605,26.1274355 C40.1910698,24.2666544 40.501575,22.2933716 40.501575,20.2503375 C40.501575,9.06540109 31.4339239,0 20.2512375,0 C17.5849431,0 15.0446507,0.526508775 12.7136119,1.46252437 L22.501275,11.2501875 L20.2512375,20.2503375 L11.2510875,22.500375 L1.46342438,12.7127119 C0.527408775,15.0437507 0.0009,17.5840431 0.0009,20.2503375 C0.0009,31.4330239 9.06630109,40.500675 20.2512375,40.500675 C22.2942716,40.500675 24.2653044,40.1901698 26.1283355,39.6276605 L40.501575,54.0009 L54.0018,40.500675 L39.6285605,26.1274355 Z M46.4551742,44.8634977 L39.0458007,37.4541242 L37.4550242,39.0449007 L44.8643977,46.4542742 L40.501575,50.8170969 L26.7650961,37.082868 C24.6208103,37.7331289 22.5102751,38.2506375 20.2512375,38.2506375 C10.324072,38.2506375 2.2509375,30.1752529 2.2509375,20.2503375 C2.2509375,19.1500692 2.34993915,18.058801 2.55244252,16.983283 L10.560326,24.9911665 C10.560326,24.9911665 18.6694611,22.9638827 22.1052684,22.1043684 L24.9920665,10.559426 L16.984183,2.55154252 C18.059701,2.34903915 19.1509692,2.2500375 20.2512375,2.2500375 C30.1761529,2.2500375 38.2515375,10.323172 38.2515375,20.2503375 C38.2515375,22.5071251 37.7317788,24.6221604 37.083768,26.7641961 C41.6603443,31.3430224 46.2391706,35.9195986 50.8179969,40.500675 L46.4551742,44.8634977 Z" fill="#333333"></path>
                <polygon id="Fill-4" fill="#B20712" points="28.4550992 30.0449757 32.9551742 34.5450507 34.5459507 32.9542742 30.0458757 28.4541992"></polygon>
            </g>
            <path d="M351.388135,96.8433739 L357.811805,90.9772172 C358.036065,90.7546685 358.036065,90.3894603 357.811805,90.1669116 C357.587544,89.9443628 357.223477,89.9443628 356.999787,90.1669116 L350.162975,96.4096892 C350.043712,96.5295231 349.992355,96.6893017 350.000914,96.8433739 C349.992355,97.0031525 350.043712,97.1629311 350.162975,97.282765 L356.999787,103.525543 C357.223477,103.748091 357.587544,103.748091 357.811805,103.525543 C358.036065,103.297288 358.036065,102.937786 357.811805,102.715237 L351.388135,96.8433739" id="chevron-left-copy" fill="#FFFFFF" transform="translate(353.990000, 96.846227) scale(-1, 1) translate(-353.990000, -96.846227) "></path>
            <path d="M351.388135,136.843374 L357.811805,130.977217 C358.036065,130.754669 358.036065,130.38946 357.811805,130.166912 C357.587544,129.944363 357.223477,129.944363 356.999787,130.166912 L350.162975,136.409689 C350.043712,136.529523 349.992355,136.689302 350.000914,136.843374 C349.992355,137.003153 350.043712,137.162931 350.162975,137.282765 L356.999787,143.525543 C357.223477,143.748091 357.587544,143.748091 357.811805,143.525543 C358.036065,143.297288 358.036065,142.937786 357.811805,142.715237 L351.388135,136.843374" id="chevron-left-copy-2" fill="#FFFFFF"></path>
            <path d="M300.499997,44.4196152 L308.292948,44.4196152 L305.646465,47.0188401 C305.451216,47.2106023 305.451216,47.5214485 305.646465,47.7132107 C305.841713,47.9049729 306.158337,47.9049729 306.353585,47.7132107 L309.853563,44.2757322 C310.048812,44.08397 310.048812,43.773001 309.853563,43.5813615 L306.353585,40.143883 C306.255961,40.0480019 306.127962,40 305.999963,40 C305.872088,40 305.744089,40.0480019 305.646465,40.143883 C305.451216,40.3356452 305.451216,40.6466143 305.646465,40.8382537 L308.292948,43.4374785 L300.499997,43.4374785 C300.223874,43.4374785 300,43.6573544 300,43.9285469 C300,44.1997394 300.223874,44.4196152 300.499997,44.4196152 Z" id="Shape" fill="#6B6B6B" opacity="0.5"></path>
        </g>
    </g>
</svg>